<svg width="39" height="39" viewBox="0 0 39 39" fill="none" xmlns="http://www.w3.org/2000/svg">
<path d="M9.56644 10.9253L9.53802 10.9H9.5H0.1V3.04142L3.04142 0.1H19.9V14.9H14.038L9.56644 10.9253Z" fill="#EAC987" stroke="black" stroke-width="0.2"/>
<path d="M29.9041 10.9295L29.9334 10.9H29.975H38.9V3.03993L36.1071 0.1H20.1V14.9H25.9584L29.9041 10.9295Z" fill="#EAC987" stroke="black" stroke-width="0.2"/>
<path d="M9.56644 29.0747L9.53802 29.1H9.5H0.1V36.9465L3.03028 38.9H19.9V25.1H14.038L9.56644 29.0747Z" fill="#EAC987" stroke="black" stroke-width="0.2"/>
<path d="M30.4336 29.0747L30.462 29.1H30.5H38.9V36.948L36.1184 38.9H20.1V25.1H25.962L30.4336 29.0747Z" fill="#EAC987" stroke="black" stroke-width="0.2"/>
<rect x="14.1" y="15.1" width="11.8" height="9.8" fill="#EAC987" stroke="black" stroke-width="0.2"/>
<path d="M0.1 11.1H9.46198L13.9 15.0449V19.9H0.1V11.1Z" fill="#EAC987" stroke="black" stroke-width="0.2"/>
<path d="M38.9 11.1H30.0414L26.1 15.0414V19.9H38.9V11.1Z" fill="#EAC987" stroke="black" stroke-width="0.2"/>
<path d="M38.9 28.9H30.2187L26.1 24.9573V20.1H38.9V28.9Z" fill="#EAC987" stroke="black" stroke-width="0.2"/>
<path d="M0.1 28.9H9.46198L13.9 24.9551V20.1H0.1V28.9Z" fill="#EAC987" stroke="black" stroke-width="0.2"/>
</svg>
