<svg width="18" height="20" viewBox="0 0 18 20" fill="none" xmlns="http://www.w3.org/2000/svg">
<path d="M5.04064 1.97986C4.47006 1.97986 3.69636 1.97469 2.45559 1.97339C2.13864 1.97272 1.83247 2.08842 1.59517 2.29853C1.35787 2.50864 1.20595 2.79855 1.16824 3.11325L1.15918 3.2685V17.4966C1.15918 17.8398 1.29549 18.1689 1.53813 18.4115C1.78077 18.6541 2.10986 18.7905 2.453 18.7905L15.3912 18.7982C15.7081 18.7985 16.0141 18.6825 16.2512 18.4722C16.4882 18.2618 16.6399 17.9718 16.6772 17.6571L16.685 17.5057V3.27368C16.685 2.93054 16.5487 2.60145 16.3061 2.35881C16.0634 2.11617 15.7343 1.97986 15.3912 1.97986H12.8036" stroke="#044176" stroke-width="0.953281" stroke-linecap="round" stroke-linejoin="round"/>
<path d="M3.74664 7.15513H10.2157M3.74664 9.74277H12.8034M3.74664 12.3304H7.6281M3.74664 14.918H11.5096M6.33428 0.686035H11.5096C11.8527 0.686035 12.1818 0.822348 12.4244 1.06499C12.6671 1.30762 12.8034 1.63671 12.8034 1.97985C12.8034 2.323 12.6671 2.65208 12.4244 2.89472C12.1818 3.13736 11.8527 3.27367 11.5096 3.27367H6.33428C5.99114 3.27367 5.66205 3.13736 5.41941 2.89472C5.17678 2.65208 5.04046 2.323 5.04046 1.97985C5.04046 1.63671 5.17678 1.30762 5.41941 1.06499C5.66205 0.822348 5.99114 0.686035 6.33428 0.686035V0.686035Z" stroke="#044176" stroke-width="0.953281" stroke-linecap="round" stroke-linejoin="round"/>
</svg>
