<svg width="53" height="18" viewBox="0 0 53 18" fill="none" xmlns="http://www.w3.org/2000/svg">
<path d="M34.5208 0.548828C30.7576 0.548828 27.3947 2.51103 27.3947 6.13634C27.3947 10.2939 33.359 10.581 33.359 12.6697C33.359 13.5491 32.3572 14.3364 30.6461 14.3364C28.2177 14.3364 26.4027 13.2364 26.4027 13.2364L25.6261 16.8947C25.6261 16.8947 27.7169 17.8239 30.4928 17.8239C34.6072 17.8239 37.8447 15.7653 37.8447 12.078C37.8447 7.68482 31.8555 7.40619 31.8555 5.46759C31.8555 4.77867 32.6779 4.02383 34.3841 4.02383C36.3093 4.02383 37.8799 4.82384 37.8799 4.82384L38.64 1.2905C38.64 1.2905 36.931 0.548828 34.5208 0.548828ZM0.0911222 0.815496L0 1.34883C0 1.34883 1.58319 1.64031 3.0091 2.22175C4.84509 2.88848 4.97588 3.27662 5.28509 4.48217L8.65454 17.5489H13.1713L20.1297 0.815496H15.6233L11.1521 12.1926L9.3276 2.54883C9.16028 1.44511 8.31273 0.815496 7.27528 0.815496H0.0911222ZM21.9418 0.815496L18.4067 17.5489H22.7039L26.2266 0.815496H21.9418ZM45.909 0.815496C44.8728 0.815496 44.3238 1.37358 43.9209 2.34883L37.6252 17.5489H42.1316L43.0035 15.0155H48.4936L49.0238 17.5489H53L49.5311 0.815496H45.909ZM46.4951 5.33634L47.8309 11.6155H44.2523L46.4951 5.33634Z" fill="white"/>
</svg>
